<?xml version="1.0" standalone="no"?>
<!DOCTYPE svg PUBLIC "-//W3C//DTD SVG 20010904//EN"
 "http://www.w3.org/TR/2001/REC-SVG-20010904/DTD/svg10.dtd">
<svg version="1.0" xmlns="http://www.w3.org/2000/svg"
 width="150.000000pt" height="150.000000pt" viewBox="0 0 150.000000 150.000000"
 preserveAspectRatio="xMidYMid meet">
<metadata>
Created by potrace 1.11, written by Peter Selinger 2001-2013
</metadata>
<g transform="translate(0.000000,150.000000) scale(0.100000,-0.100000)"
fill="#000000" stroke="none">
<path d="M1005 1423 c-42 -5 -134 -31 -175 -50 -58 -26 -156 -100 -190 -143
-65 -82 -83 -196 -45 -286 20 -49 19 -54 -11 -54 -43 0 -201 -58 -257 -94 -77
-50 -134 -111 -170 -185 -29 -59 -32 -74 -32 -156 0 -85 2 -94 32 -140 41 -65
76 -97 139 -129 73 -38 174 -56 280 -51 149 6 267 54 366 148 119 114 152 237
87 328 -22 32 -24 41 -6 37 27 -5 137 14 186 32 76 30 127 65 157 110 23 34
26 47 20 87 -6 48 -22 77 -37 67 -5 -3 -5 -13 1 -24 40 -76 -25 -141 -195
-196 -63 -20 -92 -22 -275 -23 -241 -2 -310 -11 -382 -54 -63 -38 -102 -103
-92 -152 14 -70 74 -141 167 -198 26 -17 27 -17 27 1 0 11 -19 31 -49 50 -89
58 -102 141 -31 212 52 52 126 73 243 68 153 -6 213 -52 203 -156 -14 -154
-211 -312 -391 -315 -83 -1 -124 8 -178 43 -92 58 -133 205 -96 342 15 60 73
166 111 207 42 45 111 88 174 108 l52 16 35 -27 c72 -55 184 -68 219 -25 13
16 15 26 8 40 -18 32 -51 43 -137 41 -82 -1 -83 -1 -89 26 -3 15 -7 32 -9 39
-6 19 22 105 50 155 76 137 271 258 417 258 74 0 128 -29 128 -70 0 -17 -4
-18 -30 -8 -36 12 -85 -4 -101 -33 -14 -27 -2 -81 22 -101 77 -65 185 48 150
155 -27 81 -139 118 -296 100z m-139 -563 c19 -16 8 -27 -34 -33 -41 -7 -94 8
-116 32 -16 17 -14 18 59 16 43 -2 82 -8 91 -15z"/>
</g>
</svg>
